# xmcd CD database file generated by Grip 3.10.1
# 
# Track frame offsets:
#       150
#       14157
#       36562
#       57064
#       65327
#       77965
#       95960
#       113075
#       131537
#       154567
#       164537
# 
# Disc length: 2424 seconds
# 
# Revision: 6
# Processed by: cddbd v1.5.2PL0 Copyright (c) Steve Scherf et al.
# Submitted via: Grip 3.10.1
# 
DISCID=9709760b
DTITLE=Λουδοβίκος των Ανωγείων - Πύλη της άμμου
DYEAR=1997
DGENRE=
TTITLE0=Ιούλιος κι ο άνεμος
TTITLE1=Κουρασμένη νεράιδα
TTITLE2=Μάνα
TTITLE3=Ανοιχτό παράθυρο
TTITLE4=Το γράμμα του ναύτη
TTITLE5=Το άρωμα
TTITLE6=Πύλη της άμμου
TTITLE7=Σαλώμη
TTITLE8=Δώδεκα τα όχι
TTITLE9=Το ξέρω πως υπάρχεις
TTITLE10=Το νελό
EXTD=
EXTT0=
EXTT1=
EXTT2=
EXTT3=
EXTT4=
EXTT5=
EXTT6=
EXTT7=
EXTT8=
EXTT9=
EXTT10=
PLAYORDER=
